<svg xmlns="http://www.w3.org/2000/svg" width="31" height="32" viewBox="0 0 31 32">
    <g fill="none" fill-rule="evenodd">
        <g stroke="#F9F9F9">
            <g>
                <g transform="translate(-43 -929) translate(15 889) translate(28.356 40.77)">
                    <circle cx="15.38" cy="14.89" r="14.071"/>
                    <circle cx="23.658" cy="9.849" r="2.074" stroke-linecap="round" stroke-linejoin="round"/>
                    <path stroke-linecap="round" stroke-linejoin="round" d="M19.442 12.027c-.141-.5-.608-.868-1.163-.868-.667 0-1.207.53-1.207 1.185" transform="matrix(-1 0 0 1 36.514 0)"/>
                    <circle cx="16.001" cy="6.274" r="2.074" stroke-linecap="round" stroke-linejoin="round"/>
                    <path stroke-linecap="round" stroke-linejoin="round" d="M23.973 22.198c-.141-.5-.608-.868-1.163-.868-.667 0-1.207.531-1.207 1.186" transform="scale(-1 1) rotate(45 0 -33.092)"/>
                    <path stroke-linecap="round" stroke-linejoin="round" d="M11.983 8.34c-.143 1.58-1.472 2.82-3.09 2.82-1.617 0-2.946-1.24-3.089-2.82zM8.208 9.467l-.16.232m1.692-.232l.16.232M14.205 22.073c1.467-.684 3.195-.122 3.992 1.25l-5.6 2.611c-.539-1.493.142-3.177 1.608-3.861zm-.028 1.752h0m1.534-.715h0"/>
                    <path stroke-linecap="round" stroke-linejoin="round" d="M14.93 17.103c-.141-.5-.608-.868-1.163-.868-.667 0-1.207.53-1.207 1.185" transform="scale(-1 1) rotate(45 0 -16.355)"/>
                    <path stroke-linecap="round" stroke-linejoin="round" d="M9.156 22.198c-.141-.5-.608-.868-1.163-.868-.667 0-1.207.531-1.207 1.186" transform="scale(-1 1) rotate(-35 0 47.204)"/>
                    <circle cx="20.838" cy="17.181" r="2.074" stroke-linecap="round" stroke-linejoin="round"/>
                    <circle cx="7.675" cy="15.107" r="2.074" stroke-linecap="round" stroke-linejoin="round"/>
                </g>
            </g>
        </g>
    </g>
</svg>
