<svg xmlns="http://www.w3.org/2000/svg" width="18" height="17" viewBox="0 0 18 17">
    <g fill="none" fill-rule="evenodd">
        <g fill="#FDAF3B" stroke="#E59F38">
            <path d="M143.84 170.786c.48.074.56.154.608.252h0l2.159 4.374 4.827.701c.136.02.252.093.328.196.077.103.114.234.094.371-.015.109-.067.21-.145.286h0l-3.493 3.405.825 4.807c.023.136-.011.268-.085.373-.074.104-.188.18-.324.204-.108.019-.22 0-.317-.05h0l-4.317-2.27-4.317 2.27c-.122.064-.259.073-.381.035-.122-.038-.23-.123-.294-.245-.051-.098-.07-.209-.05-.317h0l.824-4.807-3.493-3.405c-.098-.096-.149-.224-.15-.352-.002-.127.045-.256.141-.355.077-.079.178-.13.286-.146h0l4.827-.701 2.159-4.374c.06-.124.166-.21.287-.252z" transform="translate(-135 -170)"/>
        </g>
    </g>
</svg>
